<?xml version="1.0" encoding="utf-8"?>
<svg xmlns="http://www.w3.org/2000/svg" viewBox="0 0 48 48" width="256" height="256">
  <linearGradient id="kKcpL8nyfIeHYJm5LuetIa" x1="24.039" x2="24.039" y1="37.522" y2="22.864" gradientUnits="userSpaceOnUse">
    <stop offset="0" stop-color="#949494" />
    <stop offset=".215" stop-color="#6d6d6c" />
    <stop offset=".434" stop-color="#4c4c4b" />
    <stop offset=".644" stop-color="#343433" />
    <stop offset=".838" stop-color="#262624" />
    <stop offset="1" stop-color="#21211f" />
  </linearGradient>
  <rect width="21.822" height="17.846" x="13.128" y="18.072" fill="url(#kKcpL8nyfIeHYJm5LuetIa)" />
  <polygon fill="#6a665e" points="41.745,16.451 24.039,16.451 15.186,16.451 6.333,16.451 6.333,14.091 15.186,10.558 24.039,7.025 32.892,10.558 41.745,14.091" />
  <polygon fill="#6b675f" points="24.014,7.062 26.957,8.216 29.906,9.393 32.855,10.571 41.662,14.085 41.672,16.426 24.039,16.426 15.222,16.426 6.406,16.426 6.415,14.085 15.222,10.571" />
  <polygon fill="#6c6860" points="23.99,7.098 26.928,8.232 29.874,9.407 32.819,10.583 41.58,14.079 41.6,16.401 24.039,16.401 15.258,16.401 6.478,16.401 6.497,14.079 15.258,10.583" />
  <polygon fill="#6d6961" points="23.966,7.135 26.9,8.247 29.841,9.421 32.783,10.595 41.498,14.073 41.527,16.376 24.039,16.376 15.295,16.376 6.551,16.376 6.579,14.073 15.295,10.595" />
  <polygon fill="#6e6a62" points="23.941,7.171 26.872,8.263 29.809,9.435 32.747,10.607 41.416,14.067 41.455,16.352 24.039,16.352 15.331,16.352 6.623,16.352 6.661,14.067 15.331,10.607" />
  <polygon fill="#6f6b63" points="23.917,7.208 26.843,8.278 29.777,9.449 32.71,10.62 41.334,14.061 41.382,16.327 24.039,16.327 15.367,16.327 6.696,16.327 6.744,14.061 15.367,10.62" />
  <polygon fill="#706c64" points="23.892,7.244 26.815,8.294 29.745,9.463 32.674,10.632 41.252,14.055 41.31,16.302 24.039,16.302 15.403,16.302 6.768,16.302 6.826,14.055 15.403,10.632" />
  <polygon fill="#716d65" points="23.868,7.281 26.787,8.309 29.712,9.477 32.638,10.644 41.17,14.049 41.237,16.277 24.039,16.277 15.44,16.277 6.841,16.277 6.908,14.049 15.44,10.644" />
  <polygon fill="#726e66" points="23.843,7.317 26.758,8.325 29.68,9.491 32.602,10.657 41.088,14.043 41.165,16.252 24.039,16.252 15.476,16.252 6.913,16.252 6.99,14.043 15.476,10.657" />
  <polygon fill="#736f67" points="23.819,7.354 26.73,8.34 29.648,9.505 32.565,10.669 41.006,14.037 41.092,16.227 24.039,16.227 15.512,16.227 6.986,16.227 7.072,14.037 15.512,10.669" />
  <polygon fill="#747068" points="23.794,7.39 26.702,8.356 29.615,9.518 32.529,10.681 40.924,14.031 41.02,16.202 24.039,16.202 15.548,16.202 7.058,16.202 7.154,14.031 15.548,10.681" />
  <polygon fill="#757169" points="23.77,7.427 26.673,8.371 29.583,9.532 32.493,10.694 40.842,14.025 40.947,16.178 24.039,16.178 15.585,16.178 7.131,16.178 7.236,14.025 15.585,10.694" />
  <polygon fill="#76726a" points="23.746,7.464 26.645,8.387 29.551,9.546 32.457,10.706 40.759,14.019 40.875,16.153 24.039,16.153 15.621,16.153 7.203,16.153 7.318,14.019 15.621,10.706" />
  <polygon fill="#77736b" points="23.721,7.5 26.617,8.402 29.519,9.56 32.42,10.718 40.677,14.013 40.802,16.128 24.039,16.128 15.657,16.128 7.276,16.128 7.4,14.013 15.657,10.718" />
  <polygon fill="#78746b" points="23.697,7.537 26.588,8.417 29.486,9.574 32.384,10.73 40.595,14.007 40.73,16.103 24.039,16.103 15.693,16.103 7.348,16.103 7.482,14.007 15.693,10.73" />
  <polygon fill="#79756c" points="23.672,7.573 26.56,8.433 29.454,9.588 32.348,10.743 40.513,14.001 40.657,16.078 24.039,16.078 15.73,16.078 7.421,16.078 7.565,14.001 15.73,10.743" />
  <polygon fill="#7a766d" points="23.648,7.61 26.532,8.448 29.422,9.602 32.312,10.755 40.431,13.995 40.585,16.053 24.039,16.053 15.766,16.053 7.493,16.053 7.647,13.995 15.766,10.755" />
  <polygon fill="#7b776e" points="23.623,7.646 26.503,8.464 29.389,9.616 32.275,10.767 40.349,13.989 40.512,16.029 24.039,16.029 15.802,16.029 7.566,16.029 7.729,13.989 15.802,10.767" />
  <polygon fill="#7c776f" points="23.599,7.683 26.475,8.479 29.357,9.629 32.239,10.78 40.267,13.983 40.44,16.004 24.039,16.004 15.838,16.004 7.638,16.004 7.811,13.983 15.838,10.78" />
  <polygon fill="#7d7870" points="23.575,7.719 26.447,8.495 29.325,9.643 32.203,10.792 40.185,13.977 40.367,15.979 24.039,15.979 15.875,15.979 7.711,15.979 7.893,13.977 15.875,10.792" />
  <polygon fill="#7e7971" points="23.55,7.756 26.418,8.51 29.293,9.657 32.167,10.804 40.103,13.971 40.295,15.954 24.039,15.954 15.911,15.954 7.783,15.954 7.975,13.971 15.911,10.804" />
  <polygon fill="#7f7a72" points="23.526,7.792 26.39,8.526 29.26,9.671 32.13,10.817 40.021,13.965 40.222,15.929 24.039,15.929 15.947,15.929 7.856,15.929 8.057,13.965 15.947,10.817" />
  <polygon fill="#807b73" points="23.501,7.829 26.362,8.541 29.228,9.685 32.094,10.829 39.938,13.959 40.15,15.904 24.039,15.904 15.983,15.904 7.928,15.904 8.139,13.959 15.983,10.829" />
  <polygon fill="#817c74" points="23.477,7.865 26.333,8.557 29.196,9.699 32.058,10.841 39.856,13.953 40.077,15.879 24.039,15.879 16.02,15.879 8.001,15.879 8.221,13.953 16.02,10.841" />
  <polygon fill="#827d75" points="23.452,7.902 26.305,8.572 29.163,9.713 32.022,10.853 39.774,13.947 40.005,15.855 24.039,15.855 16.056,15.855 8.073,15.855 8.303,13.947 16.056,10.853" />
  <polygon fill="#837e76" points="23.428,7.938 26.277,8.588 29.131,9.727 31.985,10.866 39.692,13.941 39.932,15.83 24.039,15.83 16.092,15.83 8.146,15.83 8.385,13.941 16.092,10.866" />
  <polygon fill="#847f77" points="23.403,7.975 26.248,8.603 29.099,9.741 31.949,10.878 39.61,13.935 39.86,15.805 24.039,15.805 16.128,15.805 8.218,15.805 8.468,13.935 16.128,10.878" />
  <polygon fill="#858078" points="23.379,8.011 26.22,8.618 29.067,9.754 31.913,10.89 39.528,13.929 39.787,15.78 24.039,15.78 16.165,15.78 8.291,15.78 8.55,13.929 16.165,10.89" />
  <polygon fill="#868179" points="23.355,8.048 26.192,8.634 29.034,9.768 31.877,10.903 39.446,13.923 39.715,15.755 24.039,15.755 16.201,15.755 8.363,15.755 8.632,13.923 16.201,10.903" />
  <polygon fill="#87827a" points="23.33,8.084 26.163,8.649 29.002,9.782 31.84,10.915 39.364,13.917 39.642,15.73 24.039,15.73 16.237,15.73 8.436,15.73 8.714,13.917 16.237,10.915" />
  <polygon fill="#88837b" points="23.306,8.121 26.135,8.665 28.97,9.796 31.804,10.927 39.282,13.911 39.57,15.705 24.039,15.705 16.273,15.705 8.508,15.705 8.796,13.911 16.273,10.927" />
  <polygon fill="#89847c" points="23.281,8.157 26.107,8.68 28.937,9.81 31.768,10.94 39.2,13.905 39.497,15.681 24.039,15.681 16.31,15.681 8.581,15.681 8.878,13.905 16.31,10.94" />
  <polygon fill="#8a857d" points="23.257,8.194 26.078,8.696 28.905,9.824 31.732,10.952 39.118,13.899 39.425,15.656 24.039,15.656 16.346,15.656 8.653,15.656 8.96,13.899 16.346,10.952" />
  <polygon fill="#8b867e" points="23.232,8.23 26.05,8.711 28.873,9.838 31.695,10.964 39.035,13.893 39.352,15.631 24.039,15.631 16.382,15.631 8.726,15.631 9.042,13.893 16.382,10.964" />
  <polygon fill="#8c877f" points="23.208,8.267 26.022,8.727 28.841,9.852 31.659,10.976 38.953,13.887 39.28,15.606 24.039,15.606 16.418,15.606 8.798,15.606 9.124,13.887 16.418,10.976" />
  <polygon fill="#8d8880" points="23.184,8.303 25.993,8.742 28.808,9.865 31.623,10.989 38.871,13.881 39.207,15.581 24.039,15.581 16.455,15.581 8.871,15.581 9.206,13.881 16.455,10.989" />
  <polygon fill="#8e8981" points="23.159,8.34 25.965,8.758 28.776,9.879 31.587,11.001 38.789,13.875 39.135,15.556 24.039,15.556 16.491,15.556 8.943,15.556 9.288,13.875 16.491,11.001" />
  <polygon fill="#8f8a82" points="23.135,8.376 25.937,8.773 28.744,9.893 31.55,11.013 38.707,13.869 39.062,15.531 24.039,15.531 16.527,15.531 9.016,15.531 9.371,13.869 16.527,11.013" />
  <polygon fill="#908b83" points="23.11,8.413 25.908,8.789 28.711,9.907 31.514,11.026 38.625,13.863 38.99,15.507 24.039,15.507 16.563,15.507 9.088,15.507 9.453,13.863 16.563,11.026" />
  <polygon fill="#918c84" points="23.086,8.45 25.88,8.804 28.679,9.921 31.478,11.038 38.543,13.857 38.917,15.482 24.039,15.482 16.6,15.482 9.161,15.482 9.535,13.857 16.6,11.038" />
  <polygon fill="#928d84" points="23.061,8.486 25.852,8.819 28.647,9.935 31.442,11.05 38.461,13.851 38.845,15.457 24.039,15.457 16.636,15.457 9.233,15.457 9.617,13.851 16.636,11.05" />
  <polygon fill="#938e85" points="23.037,8.523 25.824,8.835 28.614,9.949 31.405,11.063 38.379,13.845 38.772,15.432 24.039,15.432 16.672,15.432 9.306,15.432 9.699,13.845 16.672,11.063" />
  <polygon fill="#948f86" points="23.012,8.559 25.795,8.85 28.582,9.963 31.369,11.075 38.297,13.839 38.7,15.407 24.039,15.407 16.708,15.407 9.378,15.407 9.781,13.839 16.708,11.075" />
  <polygon fill="#959087" points="22.988,8.596 25.767,8.866 28.55,9.977 31.333,11.087 38.215,13.833 38.627,15.382 24.039,15.382 16.745,15.382 9.451,15.382 9.863,13.833 16.745,11.087" />
  <polygon fill="#969188" points="22.964,8.632 25.739,8.881 28.518,9.99 31.297,11.099 38.132,13.827 38.555,15.357 24.039,15.357 16.781,15.357 9.523,15.357 9.945,13.827 16.781,11.099" />
  <polygon fill="#979289" points="22.939,8.669 25.71,8.897 28.485,10.004 31.26,11.112 38.05,13.821 38.482,15.333 24.039,15.333 16.817,15.333 9.596,15.333 10.027,13.821 16.817,11.112" />
  <polygon fill="#98938a" points="22.915,8.705 25.682,8.912 28.453,10.018 31.224,11.124 37.968,13.815 38.41,15.308 24.039,15.308 16.853,15.308 9.668,15.308 10.109,13.815 16.853,11.124" />
  <polygon fill="#99948b" points="22.89,8.742 25.654,8.928 28.421,10.032 31.188,11.136 37.886,13.809 38.337,15.283 24.039,15.283 16.89,15.283 9.741,15.283 10.191,13.809 16.89,11.136" />
  <polygon fill="#9a958c" points="22.866,8.778 25.625,8.943 28.388,10.046 31.152,11.149 37.804,13.803 38.265,15.258 24.039,15.258 16.926,15.258 9.813,15.258 10.274,13.803 16.926,11.149" />
  <polygon fill="#9b968d" points="22.841,8.815 25.597,8.959 28.356,10.06 31.115,11.161 37.722,13.797 38.192,15.233 24.039,15.233 16.962,15.233 9.886,15.233 10.356,13.797 16.962,11.161" />
  <polygon fill="#9c978e" points="22.817,8.851 25.569,8.974 28.324,10.074 31.079,11.173 37.64,13.791 38.12,15.208 24.039,15.208 16.998,15.208 9.958,15.208 10.438,13.791 16.998,11.173" />
  <polygon fill="#9d988f" points="22.793,8.888 25.54,8.99 28.292,10.088 31.043,11.186 37.558,13.785 38.047,15.183 24.039,15.183 17.035,15.183 10.031,15.183 10.52,13.785 17.035,11.186" />
  <polygon fill="#9d9890" points="22.768,8.924 25.512,9.005 28.259,10.101 31.007,11.198 37.476,13.779 37.975,15.159 24.039,15.159 17.071,15.159 10.103,15.159 10.602,13.779 17.071,11.198" />
  <polygon fill="#9e9991" points="22.744,8.961 25.484,9.02 28.227,10.115 30.97,11.21 37.394,13.774 37.902,15.134 24.039,15.134 17.107,15.134 10.176,15.134 10.684,13.774 17.107,11.21" />
  <polygon fill="#9f9a92" points="22.719,8.997 25.455,9.036 28.195,10.129 30.934,11.222 37.312,13.768 37.83,15.109 24.039,15.109 17.143,15.109 10.248,15.109 10.766,13.768 17.143,11.222" />
  <polygon fill="#a09b93" points="22.695,9.034 25.427,9.051 28.162,10.143 30.898,11.235 37.229,13.762 37.757,15.084 24.039,15.084 17.18,15.084 10.32,15.084 10.848,13.762 17.18,11.235" />
  <polygon fill="#a19c94" points="22.67,9.07 25.399,9.067 28.13,10.157 30.862,11.247 37.147,13.756 37.685,15.059 24.039,15.059 17.216,15.059 10.393,15.059 10.93,13.756 17.216,11.247" />
  <polygon fill="#a29d95" points="22.646,9.107 25.37,9.082 28.098,10.171 30.825,11.259 37.065,13.75 37.612,15.034 24.039,15.034 17.252,15.034 10.465,15.034 11.012,13.75 17.252,11.259" />
  <polygon fill="#a39e96" points="22.621,9.143 25.342,9.098 28.066,10.185 30.789,11.272 36.983,13.744 37.54,15.009 24.039,15.009 17.288,15.009 10.538,15.009 11.094,13.744 17.288,11.272" />
  <polygon fill="#a49f97" points="22.597,9.18 25.314,9.113 28.033,10.199 30.753,11.284 36.901,13.738 37.467,14.985 24.039,14.985 17.325,14.985 10.61,14.985 11.177,13.738 17.325,11.284" />
  <polygon fill="#a5a098" points="22.573,9.216 25.285,9.129 28.001,10.212 30.717,11.296 36.819,13.732 37.395,14.96 24.039,14.96 17.361,14.96 10.683,14.96 11.259,13.732 17.361,11.296" />
  <polygon fill="#a6a199" points="22.548,9.253 25.257,9.144 27.969,10.226 30.68,11.309 36.737,13.726 37.322,14.935 24.039,14.935 17.397,14.935 10.755,14.935 11.341,13.726 17.397,11.309" />
  <polygon fill="#a7a29a" points="22.524,9.289 25.229,9.16 27.936,10.24 30.644,11.321 36.655,13.72 37.25,14.91 24.039,14.91 17.433,14.91 10.828,14.91 11.423,13.72 17.433,11.321" />
  <polygon fill="#a8a39b" points="22.499,9.326 25.2,9.175 27.904,10.254 30.608,11.333 36.573,13.714 37.177,14.885 24.039,14.885 17.47,14.885 10.9,14.885 11.505,13.714 17.47,11.333" />
  <polygon fill="#a9a49c" points="22.475,9.363 25.172,9.191 27.872,10.268 30.572,11.345 36.491,13.708 37.105,14.86 24.039,14.86 17.506,14.86 10.973,14.86 11.587,13.708 17.506,11.345" />
  <polygon fill="#aaa59c" points="22.45,9.399 25.144,9.206 27.84,10.282 30.535,11.358 36.409,13.702 37.032,14.835 24.039,14.835 17.542,14.835 11.045,14.835 11.669,13.702 17.542,11.358" />
  <polygon fill="#aba69d" points="22.426,9.436 25.115,9.221 27.807,10.296 30.499,11.37 36.326,13.696 36.96,14.811 24.039,14.811 17.578,14.811 11.118,14.811 11.751,13.696 17.578,11.37" />
  <polygon fill="#aca79e" points="22.402,9.472 25.087,9.237 27.775,10.31 30.463,11.382 36.244,13.69 36.887,14.786 24.039,14.786 17.615,14.786 11.19,14.786 11.833,13.69 17.615,11.382" />
  <polygon fill="#ada89f" points="22.377,9.509 25.059,9.252 27.743,10.324 30.427,11.395 36.162,13.684 36.815,14.761 24.039,14.761 17.651,14.761 11.263,14.761 11.915,13.684 17.651,11.395" />
  <polygon fill="#aea9a0" points="22.353,9.545 25.03,9.268 27.71,10.337 30.391,11.407 36.08,13.678 36.742,14.736 24.039,14.736 17.687,14.736 11.335,14.736 11.998,13.678 17.687,11.407" />
  <polygon fill="#afaaa1" points="22.328,9.582 25.002,9.283 27.678,10.351 30.354,11.419 35.998,13.672 36.67,14.711 24.039,14.711 17.723,14.711 11.408,14.711 12.08,13.672 17.723,11.419" />
  <polygon fill="#b0aba2" points="22.304,9.618 24.974,9.299 27.646,10.365 30.318,11.432 35.916,13.666 36.597,14.686 24.039,14.686 17.76,14.686 11.48,14.686 12.162,13.666 17.76,11.432" />
  <polygon fill="#b1aca3" points="22.279,9.655 24.945,9.314 27.614,10.379 30.282,11.444 35.834,13.66 36.525,14.661 24.039,14.661 17.796,14.661 11.553,14.661 12.244,13.66 17.796,11.444" />
  <polygon fill="#b2ada4" points="22.255,9.691 24.917,9.33 27.581,10.393 30.246,11.456 35.752,13.654 36.452,14.637 24.039,14.637 17.832,14.637 11.625,14.637 12.326,13.654 17.832,11.456" />
  <polygon fill="#b3aea5" points="22.23,9.728 24.889,9.345 27.549,10.407 30.209,11.469 35.67,13.648 36.38,14.612 24.039,14.612 17.868,14.612 11.698,14.612 12.408,13.648 17.868,11.469" />
  <polygon fill="#b4afa6" points="22.206,9.764 24.86,9.361 27.517,10.421 30.173,11.481 35.588,13.642 36.307,14.587 24.039,14.587 17.905,14.587 11.77,14.587 12.49,13.642 17.905,11.481" />
  <polygon fill="#b5b0a7" points="22.182,9.801 24.832,9.376 27.484,10.435 30.137,11.493 35.505,13.636 36.235,14.562 24.039,14.562 17.941,14.562 11.843,14.562 12.572,13.636 17.941,11.493" />
  <polygon fill="#b6b1a8" points="22.157,9.837 24.804,9.392 27.452,10.448 30.101,11.505 35.423,13.63 36.162,14.537 24.039,14.537 17.977,14.537 11.915,14.537 12.654,13.63 17.977,11.505" />
  <polygon fill="#b7b2a9" points="22.133,9.874 24.775,9.407 27.42,10.462 30.064,11.518 35.341,13.624 36.09,14.512 24.039,14.512 18.013,14.512 11.988,14.512 12.736,13.624 18.013,11.518" />
  <polygon fill="#b8b3aa" points="22.108,9.91 24.747,9.422 27.388,10.476 30.028,11.53 35.259,13.618 36.017,14.487 24.039,14.487 18.05,14.487 12.06,14.487 12.818,13.618 18.05,11.53" />
  <polygon fill="#b9b4ab" points="22.084,9.947 24.719,9.438 27.355,10.49 29.992,11.542 35.177,13.612 35.945,14.463 24.039,14.463 18.086,14.463 12.133,14.463 12.901,13.612 18.086,11.542" />
  <polygon fill="#bab5ac" points="22.059,9.983 24.69,9.453 27.323,10.504 29.956,11.555 35.095,13.606 35.872,14.438 24.039,14.438 18.122,14.438 12.205,14.438 12.983,13.606 18.122,11.555" />
  <polygon fill="#bbb6ad" points="22.035,10.02 24.662,9.469 27.291,10.518 29.919,11.567 35.013,13.6 35.8,14.413 24.039,14.413 18.158,14.413 12.278,14.413 13.065,13.6 18.158,11.567" />
  <polygon fill="#bcb7ae" points="22.011,10.056 24.634,9.484 27.258,10.532 29.883,11.579 34.931,13.594 35.727,14.388 24.039,14.388 18.195,14.388 12.35,14.388 13.147,13.594 18.195,11.579" />
  <polygon fill="#bdb8af" points="21.986,10.093 24.605,9.5 27.226,10.546 29.847,11.592 34.849,13.588 35.655,14.363 24.039,14.363 18.231,14.363 12.423,14.363 13.229,13.588 18.231,11.592" />
  <polygon fill="#beb9b0" points="21.962,10.129 24.577,9.515 27.194,10.56 29.811,11.604 34.767,13.582 35.582,14.338 24.039,14.338 18.267,14.338 12.495,14.338 13.311,13.582 18.267,11.604" />
  <polygon fill="#bfbab1" points="21.937,10.166 24.549,9.531 27.162,10.573 29.774,11.616 34.685,13.576 35.51,14.313 24.039,14.313 18.303,14.313 12.568,14.313 13.393,13.576 18.303,11.616" />
  <polygon fill="#c0bab2" points="21.913,10.202 24.52,9.546 27.129,10.587 29.738,11.628 34.602,13.57 35.437,14.289 24.039,14.289 18.34,14.289 12.64,14.289 13.475,13.57 18.34,11.628" />
  <polygon fill="#c1bbb3" points="21.888,10.239 24.492,9.562 27.097,10.601 29.702,11.641 34.52,13.564 35.365,14.264 24.039,14.264 18.376,14.264 12.713,14.264 13.557,13.564 18.376,11.641" />
  <polygon fill="#c2bcb4" points="21.864,10.275 24.464,9.577 27.065,10.615 29.666,11.653 34.438,13.558 35.292,14.239 24.039,14.239 18.412,14.239 12.785,14.239 13.639,13.558 18.412,11.653" />
  <polygon fill="#c3bdb5" points="21.839,10.312 24.435,9.593 27.032,10.629 29.629,11.665 34.356,13.552 35.22,14.214 24.039,14.214 18.448,14.214 12.858,14.214 13.721,13.552 18.448,11.665" />
  <polygon fill="#c4beb5" points="21.815,10.349 24.407,9.608 27,10.643 29.593,11.678 34.274,13.546 35.147,14.189 24.039,14.189 18.485,14.189 12.93,14.189 13.804,13.546 18.485,11.678" />
  <polygon fill="#c5bfb6" points="21.791,10.385 24.379,9.623 26.968,10.657 29.557,11.69 34.192,13.54 35.075,14.164 24.039,14.164 18.521,14.164 13.003,14.164 13.886,13.54 18.521,11.69" />
  <polygon fill="#c6c0b7" points="21.766,10.422 24.35,9.639 26.935,10.671 29.521,11.702 34.11,13.534 35.002,14.139 24.039,14.139 18.557,14.139 13.075,14.139 13.968,13.534 18.557,11.702" />
  <polygon fill="#c7c1b8" points="21.742,10.458 24.322,9.654 26.903,10.684 29.484,11.715 34.028,13.528 34.93,14.115 24.039,14.115 18.593,14.115 13.148,14.115 14.05,13.528 18.593,11.715" />
  <polygon fill="#c8c2b9" points="21.717,10.495 24.294,9.67 26.871,10.698 29.448,11.727 33.946,13.522 34.857,14.09 24.039,14.09 18.63,14.09 13.22,14.09 14.132,13.522 18.63,11.727" />
  <polygon fill="#c9c3ba" points="21.693,10.531 24.265,9.685 26.839,10.712 29.412,11.739 33.864,13.516 34.785,14.065 24.039,14.065 18.666,14.065 13.293,14.065 14.214,13.516 18.666,11.739" />
  <polygon fill="#cac4bb" points="21.668,10.568 24.237,9.701 26.806,10.726 29.376,11.751 33.782,13.51 34.712,14.04 24.039,14.04 18.702,14.04 13.365,14.04 14.296,13.51 18.702,11.751" />
  <polygon fill="#cbc5bc" points="21.644,10.604 24.209,9.716 26.774,10.74 29.339,11.764 33.699,13.504 34.64,14.015 24.039,14.015 18.738,14.015 13.438,14.015 14.378,13.504 18.738,11.764" />
  <polygon fill="#ccc6bd" points="21.62,10.641 24.18,9.732 26.742,10.754 29.303,11.776 33.617,13.498 34.567,13.99 24.039,13.99 18.775,13.99 13.51,13.99 14.46,13.498 18.775,11.776" />
  <polygon fill="#cdc7be" points="21.595,10.677 24.152,9.747 26.709,10.768 29.267,11.788 33.535,13.492 34.495,13.966 24.039,13.966 18.811,13.966 13.583,13.966 14.542,13.492 18.811,11.788" />
  <polygon fill="#cec8bf" points="21.571,10.714 24.124,9.763 26.677,10.782 29.231,11.801 33.453,13.486 34.422,13.941 24.039,13.941 18.847,13.941 13.655,13.941 14.624,13.486 18.847,11.801" />
  <polygon fill="#cfc9c0" points="21.546,10.75 24.095,9.778 26.645,10.796 29.194,11.813 33.371,13.48 34.35,13.916 24.039,13.916 18.883,13.916 13.728,13.916 14.707,13.48 18.883,11.813" />
  <polygon fill="#d0cac1" points="21.522,10.787 24.067,9.794 26.613,10.809 29.158,11.825 33.289,13.474 34.277,13.891 24.039,13.891 18.92,13.891 13.8,13.891 14.789,13.474 18.92,11.825" />
  <polygon fill="#d1cbc2" points="13.873,13.866 18.956,11.838 21.497,10.823 24.039,9.809 26.58,10.823 29.122,11.838 34.205,13.866 24.039,13.866 18.956,13.866" />
  <linearGradient id="kKcpL8nyfIeHYJm5LuetIb" x1="23.969" x2="23.969" y1="41.712" y2="38.981" gradientUnits="userSpaceOnUse">
    <stop offset=".131" stop-color="#6a665e" />
    <stop offset=".226" stop-color="#757169" />
    <stop offset=".393" stop-color="#938f86" />
    <stop offset=".613" stop-color="#c4beb5" />
    <stop offset=".7" stop-color="#d9d3ca" />
    <stop offset=".812" stop-color="#e2ded5" />
    <stop offset="1" stop-color="#faf8f2" />
  </linearGradient>
  <rect width="35.411" height="1.694" x="6.263" y="39.306" fill="url(#kKcpL8nyfIeHYJm5LuetIb)" />
  <linearGradient id="kKcpL8nyfIeHYJm5LuetIc" x1="23.969" x2="23.969" y1="40.08" y2="37.478" gradientUnits="userSpaceOnUse">
    <stop offset=".131" stop-color="#6a665e" />
    <stop offset=".226" stop-color="#757169" />
    <stop offset=".393" stop-color="#938f86" />
    <stop offset=".613" stop-color="#c4beb5" />
    <stop offset=".7" stop-color="#d9d3ca" />
    <stop offset=".812" stop-color="#e2ded5" />
    <stop offset="1" stop-color="#faf8f2" />
  </linearGradient>
  <rect width="32.627" height="1.694" x="7.655" y="37.611" fill="url(#kKcpL8nyfIeHYJm5LuetIc)" />
  <linearGradient id="kKcpL8nyfIeHYJm5LuetId" x1="23.969" x2="23.969" y1="38.403" y2="35.533" gradientUnits="userSpaceOnUse">
    <stop offset=".131" stop-color="#6a665e" />
    <stop offset=".226" stop-color="#757169" />
    <stop offset=".393" stop-color="#938f86" />
    <stop offset=".613" stop-color="#c4beb5" />
    <stop offset=".7" stop-color="#d9d3ca" />
    <stop offset=".812" stop-color="#e2ded5" />
    <stop offset="1" stop-color="#faf8f2" />
  </linearGradient>
  <rect width="30.146" height="1.694" x="8.896" y="35.917" fill="url(#kKcpL8nyfIeHYJm5LuetId)" />
  <linearGradient id="kKcpL8nyfIeHYJm5LuetIe" x1="10.393" x2="15.863" y1="20.314" y2="20.314" gradientUnits="userSpaceOnUse">
    <stop offset="0" stop-color="#6a665e" />
    <stop offset=".112" stop-color="#89857c" />
    <stop offset=".271" stop-color="#b0aba2" />
    <stop offset=".399" stop-color="#c8c2b9" />
    <stop offset=".478" stop-color="#d1cbc2" />
    <stop offset=".571" stop-color="#ccc6bd" />
    <stop offset=".685" stop-color="#bdb7ae" />
    <stop offset=".811" stop-color="#a49f96" />
    <stop offset=".944" stop-color="#817d75" />
    <stop offset="1" stop-color="#706c64" />
  </linearGradient>
  <rect width="5.47" height="1.493" x="10.393" y="19.567" fill="url(#kKcpL8nyfIeHYJm5LuetIe)" />
  <linearGradient id="kKcpL8nyfIeHYJm5LuetIf" x1="17.667" x2="23.137" y1="20.314" y2="20.314" gradientUnits="userSpaceOnUse">
    <stop offset="0" stop-color="#6a665e" />
    <stop offset=".112" stop-color="#89857c" />
    <stop offset=".271" stop-color="#b0aba2" />
    <stop offset=".399" stop-color="#c8c2b9" />
    <stop offset=".478" stop-color="#d1cbc2" />
    <stop offset=".571" stop-color="#ccc6bd" />
    <stop offset=".685" stop-color="#bdb7ae" />
    <stop offset=".811" stop-color="#a49f96" />
    <stop offset=".944" stop-color="#817d75" />
    <stop offset="1" stop-color="#706c64" />
  </linearGradient>
  <rect width="5.47" height="1.493" x="17.667" y="19.567" fill="url(#kKcpL8nyfIeHYJm5LuetIf)" />
  <linearGradient id="kKcpL8nyfIeHYJm5LuetIg" x1="24.941" x2="30.411" y1="20.314" y2="20.314" gradientUnits="userSpaceOnUse">
    <stop offset="0" stop-color="#6a665e" />
    <stop offset=".112" stop-color="#89857c" />
    <stop offset=".271" stop-color="#b0aba2" />
    <stop offset=".399" stop-color="#c8c2b9" />
    <stop offset=".478" stop-color="#d1cbc2" />
    <stop offset=".571" stop-color="#ccc6bd" />
    <stop offset=".685" stop-color="#bdb7ae" />
    <stop offset=".811" stop-color="#a49f96" />
    <stop offset=".944" stop-color="#817d75" />
    <stop offset="1" stop-color="#706c64" />
  </linearGradient>
  <rect width="5.47" height="1.493" x="24.941" y="19.567" fill="url(#kKcpL8nyfIeHYJm5LuetIg)" />
  <linearGradient id="kKcpL8nyfIeHYJm5LuetIh" x1="32.215" x2="37.685" y1="20.314" y2="20.314" gradientUnits="userSpaceOnUse">
    <stop offset="0" stop-color="#6a665e" />
    <stop offset=".112" stop-color="#89857c" />
    <stop offset=".271" stop-color="#b0aba2" />
    <stop offset=".399" stop-color="#c8c2b9" />
    <stop offset=".478" stop-color="#d1cbc2" />
    <stop offset=".571" stop-color="#ccc6bd" />
    <stop offset=".685" stop-color="#bdb7ae" />
    <stop offset=".811" stop-color="#a49f96" />
    <stop offset=".944" stop-color="#817d75" />
    <stop offset="1" stop-color="#706c64" />
  </linearGradient>
  <rect width="5.47" height="1.493" x="32.215" y="19.567" fill="url(#kKcpL8nyfIeHYJm5LuetIh)" />
  <linearGradient id="kKcpL8nyfIeHYJm5LuetIi" x1="24.039" x2="24.039" y1="19.27" y2="21.178" gradientUnits="userSpaceOnUse">
    <stop offset=".266" stop-color="#6a665e" stop-opacity=".78" />
    <stop offset=".437" stop-color="#89857c" stop-opacity=".598" />
    <stop offset=".683" stop-color="#b0aba2" stop-opacity=".337" />
    <stop offset=".879" stop-color="#c8c2b9" stop-opacity=".129" />
    <stop offset="1" stop-color="#d1cbc2" stop-opacity="0" />
  </linearGradient>
  <path fill="url(#kKcpL8nyfIeHYJm5LuetIi)" d="M15.863,21.06h-5.47v-1.493h5.47V21.06z M23.137,19.567h-5.47v1.493h5.47V19.567z M30.411,19.567h-5.47v1.493h5.47V19.567z M37.685,19.567h-5.47v1.493h5.47V19.567z" />
  <linearGradient id="kKcpL8nyfIeHYJm5LuetIj" x1="10.393" x2="15.863" y1="35.171" y2="35.171" gradientUnits="userSpaceOnUse">
    <stop offset="0" stop-color="#6a665e" />
    <stop offset=".112" stop-color="#89857c" />
    <stop offset=".271" stop-color="#b0aba2" />
    <stop offset=".399" stop-color="#c8c2b9" />
    <stop offset=".478" stop-color="#d1cbc2" />
    <stop offset=".571" stop-color="#ccc6bd" />
    <stop offset=".685" stop-color="#bdb7ae" />
    <stop offset=".811" stop-color="#a49f96" />
    <stop offset=".944" stop-color="#817d75" />
    <stop offset="1" stop-color="#706c64" />
  </linearGradient>
  <rect width="5.47" height="1.493" x="10.393" y="34.424" fill="url(#kKcpL8nyfIeHYJm5LuetIj)" />
  <linearGradient id="kKcpL8nyfIeHYJm5LuetIk" x1="17.667" x2="23.137" y1="35.171" y2="35.171" gradientUnits="userSpaceOnUse">
    <stop offset="0" stop-color="#6a665e" />
    <stop offset=".112" stop-color="#89857c" />
    <stop offset=".271" stop-color="#b0aba2" />
    <stop offset=".399" stop-color="#c8c2b9" />
    <stop offset=".478" stop-color="#d1cbc2" />
    <stop offset=".571" stop-color="#ccc6bd" />
    <stop offset=".685" stop-color="#bdb7ae" />
    <stop offset=".811" stop-color="#a49f96" />
    <stop offset=".944" stop-color="#817d75" />
    <stop offset="1" stop-color="#706c64" />
  </linearGradient>
  <rect width="5.47" height="1.493" x="17.667" y="34.424" fill="url(#kKcpL8nyfIeHYJm5LuetIk)" />
  <linearGradient id="kKcpL8nyfIeHYJm5LuetIl" x1="24.941" x2="30.411" y1="35.171" y2="35.171" gradientUnits="userSpaceOnUse">
    <stop offset="0" stop-color="#6a665e" />
    <stop offset=".112" stop-color="#89857c" />
    <stop offset=".271" stop-color="#b0aba2" />
    <stop offset=".399" stop-color="#c8c2b9" />
    <stop offset=".478" stop-color="#d1cbc2" />
    <stop offset=".571" stop-color="#ccc6bd" />
    <stop offset=".685" stop-color="#bdb7ae" />
    <stop offset=".811" stop-color="#a49f96" />
    <stop offset=".944" stop-color="#817d75" />
    <stop offset="1" stop-color="#706c64" />
  </linearGradient>
  <rect width="5.47" height="1.493" x="24.941" y="34.424" fill="url(#kKcpL8nyfIeHYJm5LuetIl)" />
  <linearGradient id="kKcpL8nyfIeHYJm5LuetIm" x1="32.215" x2="37.685" y1="35.171" y2="35.171" gradientUnits="userSpaceOnUse">
    <stop offset="0" stop-color="#6a665e" />
    <stop offset=".112" stop-color="#89857c" />
    <stop offset=".271" stop-color="#b0aba2" />
    <stop offset=".399" stop-color="#c8c2b9" />
    <stop offset=".478" stop-color="#d1cbc2" />
    <stop offset=".571" stop-color="#ccc6bd" />
    <stop offset=".685" stop-color="#bdb7ae" />
    <stop offset=".811" stop-color="#a49f96" />
    <stop offset=".944" stop-color="#817d75" />
    <stop offset="1" stop-color="#706c64" />
  </linearGradient>
  <rect width="5.47" height="1.493" x="32.215" y="34.424" fill="url(#kKcpL8nyfIeHYJm5LuetIm)" />
  <linearGradient id="kKcpL8nyfIeHYJm5LuetIn" x1="11.507" x2="14.749" y1="27.742" y2="27.742" gradientUnits="userSpaceOnUse">
    <stop offset="0" stop-color="#6a665e" />
    <stop offset=".112" stop-color="#89857c" />
    <stop offset=".271" stop-color="#b0aba2" />
    <stop offset=".399" stop-color="#c8c2b9" />
    <stop offset=".478" stop-color="#d1cbc2" />
    <stop offset=".571" stop-color="#ccc6bd" />
    <stop offset=".685" stop-color="#bdb7ae" />
    <stop offset=".811" stop-color="#a49f96" />
    <stop offset=".944" stop-color="#817d75" />
    <stop offset="1" stop-color="#706c64" />
  </linearGradient>
  <rect width="3.242" height="13.364" x="11.507" y="21.06" fill="url(#kKcpL8nyfIeHYJm5LuetIn)" />
  <linearGradient id="kKcpL8nyfIeHYJm5LuetIo" x1="18.781" x2="22.023" y1="27.742" y2="27.742" gradientUnits="userSpaceOnUse">
    <stop offset="0" stop-color="#6a665e" />
    <stop offset=".112" stop-color="#89857c" />
    <stop offset=".271" stop-color="#b0aba2" />
    <stop offset=".399" stop-color="#c8c2b9" />
    <stop offset=".478" stop-color="#d1cbc2" />
    <stop offset=".571" stop-color="#ccc6bd" />
    <stop offset=".685" stop-color="#bdb7ae" />
    <stop offset=".811" stop-color="#a49f96" />
    <stop offset=".944" stop-color="#817d75" />
    <stop offset="1" stop-color="#706c64" />
  </linearGradient>
  <rect width="3.242" height="13.364" x="18.781" y="21.06" fill="url(#kKcpL8nyfIeHYJm5LuetIo)" />
  <linearGradient id="kKcpL8nyfIeHYJm5LuetIp" x1="26.055" x2="29.297" y1="27.742" y2="27.742" gradientUnits="userSpaceOnUse">
    <stop offset="0" stop-color="#6a665e" />
    <stop offset=".112" stop-color="#89857c" />
    <stop offset=".271" stop-color="#b0aba2" />
    <stop offset=".399" stop-color="#c8c2b9" />
    <stop offset=".478" stop-color="#d1cbc2" />
    <stop offset=".571" stop-color="#ccc6bd" />
    <stop offset=".685" stop-color="#bdb7ae" />
    <stop offset=".811" stop-color="#a49f96" />
    <stop offset=".944" stop-color="#817d75" />
    <stop offset="1" stop-color="#706c64" />
  </linearGradient>
  <rect width="3.242" height="13.364" x="26.055" y="21.06" fill="url(#kKcpL8nyfIeHYJm5LuetIp)" />
  <linearGradient id="kKcpL8nyfIeHYJm5LuetIq" x1="33.329" x2="36.571" y1="27.742" y2="27.742" gradientUnits="userSpaceOnUse">
    <stop offset="0" stop-color="#6a665e" />
    <stop offset=".112" stop-color="#89857c" />
    <stop offset=".271" stop-color="#b0aba2" />
    <stop offset=".399" stop-color="#c8c2b9" />
    <stop offset=".478" stop-color="#d1cbc2" />
    <stop offset=".571" stop-color="#ccc6bd" />
    <stop offset=".685" stop-color="#bdb7ae" />
    <stop offset=".811" stop-color="#a49f96" />
    <stop offset=".944" stop-color="#817d75" />
    <stop offset="1" stop-color="#706c64" />
  </linearGradient>
  <rect width="3.242" height="13.364" x="33.329" y="21.06" fill="url(#kKcpL8nyfIeHYJm5LuetIq)" />
  <linearGradient id="kKcpL8nyfIeHYJm5LuetIr" x1="24.039" x2="24.039" y1="15.802" y2="19.538" gradientUnits="userSpaceOnUse">
    <stop offset=".131" stop-color="#6a665e" />
    <stop offset=".24" stop-color="#757169" />
    <stop offset=".434" stop-color="#938f86" />
    <stop offset=".687" stop-color="#c4beb5" />
    <stop offset=".788" stop-color="#d9d3ca" />
    <stop offset=".835" stop-color="#d9d3ca" />
  </linearGradient>
  <rect width="31.397" height="3.116" x="8.34" y="16.451" fill="url(#kKcpL8nyfIeHYJm5LuetIr)" />
  <g>
    <linearGradient id="kKcpL8nyfIeHYJm5LuetIs" x1="11.055" x2="11.105" y1="16.872" y2="19.394" gradientUnits="userSpaceOnUse">
      <stop offset=".163" stop-color="#6a665e" />
      <stop offset=".275" stop-color="#757169" />
      <stop offset=".474" stop-color="#938f86" />
      <stop offset=".736" stop-color="#c4beb5" />
      <stop offset=".839" stop-color="#d9d3ca" />
      <stop offset=".899" stop-color="#e2ded5" />
      <stop offset="1" stop-color="#faf8f2" />
    </linearGradient>
    <rect width="3.242" height="1.558" x="9.457" y="17.267" fill="url(#kKcpL8nyfIeHYJm5LuetIs)" />
    <linearGradient id="kKcpL8nyfIeHYJm5LuetIt" x1="15.397" x2="15.447" y1="16.872" y2="19.394" gradientUnits="userSpaceOnUse">
      <stop offset=".163" stop-color="#6a665e" />
      <stop offset=".275" stop-color="#757169" />
      <stop offset=".474" stop-color="#938f86" />
      <stop offset=".736" stop-color="#c4beb5" />
      <stop offset=".839" stop-color="#d9d3ca" />
      <stop offset=".899" stop-color="#e2ded5" />
      <stop offset="1" stop-color="#faf8f2" />
    </linearGradient>
    <rect width="3.242" height="1.558" x="13.799" y="17.267" fill="url(#kKcpL8nyfIeHYJm5LuetIt)" />
    <linearGradient id="kKcpL8nyfIeHYJm5LuetIu" x1="19.739" x2="19.789" y1="16.872" y2="19.394" gradientUnits="userSpaceOnUse">
      <stop offset=".163" stop-color="#6a665e" />
      <stop offset=".275" stop-color="#757169" />
      <stop offset=".474" stop-color="#938f86" />
      <stop offset=".736" stop-color="#c4beb5" />
      <stop offset=".839" stop-color="#d9d3ca" />
      <stop offset=".899" stop-color="#e2ded5" />
      <stop offset="1" stop-color="#faf8f2" />
    </linearGradient>
    <rect width="3.242" height="1.558" x="18.141" y="17.267" fill="url(#kKcpL8nyfIeHYJm5LuetIu)" />
    <linearGradient id="kKcpL8nyfIeHYJm5LuetIv" x1="24.08" x2="24.131" y1="16.872" y2="19.394" gradientUnits="userSpaceOnUse">
      <stop offset=".163" stop-color="#6a665e" />
      <stop offset=".275" stop-color="#757169" />
      <stop offset=".474" stop-color="#938f86" />
      <stop offset=".736" stop-color="#c4beb5" />
      <stop offset=".839" stop-color="#d9d3ca" />
      <stop offset=".899" stop-color="#e2ded5" />
      <stop offset="1" stop-color="#faf8f2" />
    </linearGradient>
    <rect width="3.242" height="1.558" x="22.483" y="17.267" fill="url(#kKcpL8nyfIeHYJm5LuetIv)" />
    <linearGradient id="kKcpL8nyfIeHYJm5LuetIw" x1="28.422" x2="28.473" y1="16.872" y2="19.394" gradientUnits="userSpaceOnUse">
      <stop offset=".163" stop-color="#6a665e" />
      <stop offset=".275" stop-color="#757169" />
      <stop offset=".474" stop-color="#938f86" />
      <stop offset=".736" stop-color="#c4beb5" />
      <stop offset=".839" stop-color="#d9d3ca" />
      <stop offset=".899" stop-color="#e2ded5" />
      <stop offset="1" stop-color="#faf8f2" />
    </linearGradient>
    <rect width="3.242" height="1.558" x="26.825" y="17.267" fill="url(#kKcpL8nyfIeHYJm5LuetIw)" />
    <linearGradient id="kKcpL8nyfIeHYJm5LuetIx" x1="32.764" x2="32.815" y1="16.872" y2="19.394" gradientUnits="userSpaceOnUse">
      <stop offset=".163" stop-color="#6a665e" />
      <stop offset=".275" stop-color="#757169" />
      <stop offset=".474" stop-color="#938f86" />
      <stop offset=".736" stop-color="#c4beb5" />
      <stop offset=".839" stop-color="#d9d3ca" />
      <stop offset=".899" stop-color="#e2ded5" />
      <stop offset="1" stop-color="#faf8f2" />
    </linearGradient>
    <rect width="3.242" height="1.558" x="31.166" y="17.267" fill="url(#kKcpL8nyfIeHYJm5LuetIx)" />
    <linearGradient id="kKcpL8nyfIeHYJm5LuetIy" x1="37.106" x2="37.156" y1="16.872" y2="19.394" gradientUnits="userSpaceOnUse">
      <stop offset=".163" stop-color="#6a665e" />
      <stop offset=".275" stop-color="#757169" />
      <stop offset=".474" stop-color="#938f86" />
      <stop offset=".736" stop-color="#c4beb5" />
      <stop offset=".839" stop-color="#d9d3ca" />
      <stop offset=".899" stop-color="#e2ded5" />
      <stop offset="1" stop-color="#faf8f2" />
    </linearGradient>
    <rect width="3.242" height="1.558" x="35.508" y="17.267" fill="url(#kKcpL8nyfIeHYJm5LuetIy)" />
  </g>
  <radialGradient id="kKcpL8nyfIeHYJm5LuetIz" cx="24.152" cy="7.998" r="29.159" gradientTransform="matrix(1 0 0 .5887 0 3.29)" gradientUnits="userSpaceOnUse">
    <stop offset="0" stop-color="#d1cbc2" />
    <stop offset=".266" stop-color="#cec8bf" />
    <stop offset=".453" stop-color="#c5bfb6" />
    <stop offset=".615" stop-color="#b5b0a7" />
    <stop offset=".763" stop-color="#a09b92" />
    <stop offset=".9" stop-color="#847f77" />
    <stop offset="1" stop-color="#6a665e" />
  </radialGradient>
  <path fill="url(#kKcpL8nyfIeHYJm5LuetIz)" d="M24.057,6.948L24.039,6.94L6.316,14.039l-0.03,0.012v2.448h35.507V14.05L24.057,6.948z M7.246,15.539V14.7l16.793-6.725L40.832,14.7v0.839H7.246z" />
</svg>